# xmcd
#
# Track frame offsets:
#	150
#	31953
#	49254
#	79534
#	111586
#	142913
#	185175
#	209046
#	236938
#	280091
#
# Disc length: 4028 seconds
#
# Revision: 0
# Processed by: cddbd v1.5.1PL2 Copyright (c) Steve Scherf et al.
# Submitted via: dBpowerAMP V4.0
#
DISCID=990fba0a
DTITLE=Steve Arvey and Blues Move - Live At The Blues Of The Month Club
DYEAR=2004
DGENRE=Blues
TTITLE0=Hip Hop
TTITLE1=Stranded
TTITLE2=How do You Spell Love
TTITLE3=Love Ain't Easy
TTITLE4=Chains
TTITLE5=MR. Nobody's Somebody
TTITLE6=Cold Wind From Chicago
TTITLE7=Cleethorpian Sunset
TTITLE8=Roger Gets Funky
TTITLE9=Soul of a Man
EXTD=
EXTT0=
EXTT1=
EXTT2=
EXTT3=
EXTT4=
EXTT5=
EXTT6=
EXTT7=
EXTT8=
EXTT9=
PLAYORDER=
